<svg width="1440" height="188" viewBox="0 0 1440 188" fill="none" xmlns="http://www.w3.org/2000/svg">
<rect width="1440" height="188" fill="#EBEBEB"/>
<path opacity="0.994" fill-rule="evenodd" clip-rule="evenodd" d="M172.425 40C186.525 40 200.625 40 214.725 40C214.687 49.1503 214.725 58.3003 214.837 67.45C215.078 67.6055 215.34 67.718 215.625 67.7875C224.625 67.9 233.625 67.9376 242.625 67.9C242.625 76.1501 242.625 84.3999 242.625 92.65C229.65 92.6124 216.675 92.65 203.7 92.7625C203.172 92.7872 202.834 93.0498 202.687 93.55C202.537 101.125 202.537 108.7 202.687 116.275C202.875 116.462 203.063 116.65 203.25 116.837C216.375 116.95 229.5 116.988 242.625 116.95C242.725 124.831 242.613 132.706 242.287 140.575C241.35 144.512 238.912 146.95 234.975 147.887C214.2 148.038 193.425 148.038 172.65 147.887C168.539 146.852 166.027 144.264 165.113 140.125C164.962 109.375 164.962 78.6251 165.113 47.875C166.044 43.8315 168.482 41.2064 172.425 40Z" fill="#DBDBDB"/>
<path opacity="0.974" fill-rule="evenodd" clip-rule="evenodd" d="M216.75 41.125C225.03 49.2922 233.28 57.5047 241.5 65.7625C233.25 65.875 225 65.9126 216.75 65.875C216.75 57.625 216.75 49.375 216.75 41.125Z" fill="#DBDBDB"/>
<path d="M204 94H250V116H204V94Z" fill="#DBDBDB"/>
<path d="M215.445 106.945H213.359V105.117H215.445C215.893 105.117 216.258 105.044 216.539 104.898C216.82 104.747 217.026 104.539 217.156 104.273C217.286 104.008 217.352 103.708 217.352 103.375C217.352 103.036 217.286 102.721 217.156 102.43C217.026 102.138 216.82 101.904 216.539 101.727C216.258 101.549 215.893 101.461 215.445 101.461H213.359V111H211.016V99.625H215.445C216.336 99.625 217.099 99.7865 217.734 100.109C218.375 100.427 218.865 100.867 219.203 101.43C219.542 101.992 219.711 102.635 219.711 103.359C219.711 104.094 219.542 104.729 219.203 105.266C218.865 105.802 218.375 106.216 217.734 106.508C217.099 106.799 216.336 106.945 215.445 106.945Z" fill="white"/>
<path d="M224.82 111L223.672 111.031V109.172H224.82C225.435 109.172 225.953 109.034 226.375 108.758C226.797 108.477 227.115 108.068 227.328 107.531C227.547 106.995 227.656 106.346 227.656 105.586V105.031C227.656 104.448 227.594 103.935 227.469 103.492C227.349 103.049 227.169 102.677 226.93 102.375C226.69 102.073 226.396 101.846 226.047 101.695C225.698 101.539 225.297 101.461 224.844 101.461H223.672V99.625H224.844C225.604 99.625 226.299 99.7552 226.93 100.016C227.565 100.271 228.115 100.638 228.578 101.117C229.042 101.596 229.398 102.169 229.648 102.836C229.904 103.497 230.031 104.234 230.031 105.047V105.586C230.031 106.393 229.904 107.13 229.648 107.797C229.398 108.464 229.042 109.036 228.578 109.516C228.12 109.99 227.57 110.357 226.93 110.617C226.294 110.872 225.591 111 224.82 111ZM223.672 99.625V111H221.328V99.625H223.672Z" fill="white"/>
<path d="M234.078 99.625V111H231.734V99.625H234.078ZM238.609 104.484V106.312H234.078V104.484H238.609ZM239.156 99.625V101.461L234.078 101.5V99.625H239.156Z" fill="white"/>
<path d="M238.438 109.914C238.438 109.581 238.552 109.302 238.781 109.078C239.016 108.854 239.326 108.742 239.711 108.742C240.096 108.742 240.404 108.854 240.633 109.078C240.867 109.302 240.984 109.581 240.984 109.914C240.984 110.247 240.867 110.526 240.633 110.75C240.404 110.974 240.096 111.086 239.711 111.086C239.326 111.086 239.016 110.974 238.781 110.75C238.552 110.526 238.438 110.247 238.438 109.914Z" fill="white"/>
</svg>
