<svg width="1440" height="188" viewBox="0 0 1440 188" fill="none" xmlns="http://www.w3.org/2000/svg">
<rect width="1440" height="188" fill="#EBEBEB"/>
<g clip-path="url(#clip0_125_2018)">
<path opacity="0.986" fill-rule="evenodd" clip-rule="evenodd" d="M198.105 39.8945C198.822 39.8945 199.538 39.8945 200.254 39.8945C210.322 44.3522 220.446 48.7116 230.625 52.9727C240.754 48.7494 250.812 44.3901 260.801 39.8945C261.582 39.8945 262.363 39.8945 263.145 39.8945C263.435 40.1695 263.761 40.4156 264.121 40.6328C264.355 41.0579 264.615 41.4446 264.902 41.793C264.902 71.957 264.902 102.121 264.902 132.285C264.41 133.342 263.629 134.08 262.559 134.5C252.233 138.918 241.946 143.383 231.699 147.895C230.983 147.895 230.267 147.895 229.551 147.895C219.483 143.437 209.359 139.078 199.18 134.816C189.051 139.04 178.992 143.399 169.004 147.895C168.223 147.895 167.441 147.895 166.66 147.895C166.37 147.619 166.044 147.374 165.684 147.156C165.45 146.731 165.189 146.344 164.902 145.996C164.902 115.832 164.902 85.668 164.902 55.5039C165.394 54.4472 166.176 53.709 167.246 53.2891C177.572 48.8713 187.858 44.4064 198.105 39.8945ZM192.246 57.4023C194.862 57.3786 195.969 58.7497 195.566 61.5156C195.32 62.2737 194.865 62.8363 194.199 63.2031C189.612 65.2412 184.989 67.1747 180.332 69.0039C178.296 68.5413 177.417 67.2055 177.695 64.9961C177.903 64.3502 178.261 63.8229 178.77 63.4141C183.279 61.399 187.771 59.3951 192.246 57.4023ZM208.262 58.668C213.139 60.4828 217.957 62.4868 222.715 64.6797C223.146 65.0748 223.504 65.5319 223.789 66.0508C224.111 76.3068 224.176 86.5725 223.984 96.8477C223.223 99.5599 221.628 100.298 219.199 99.0625C215.075 97.2927 210.974 95.4645 206.895 93.5781C206.481 93.213 206.188 92.7559 206.016 92.207C205.693 81.9538 205.628 71.6881 205.82 61.4102C206.149 59.9658 206.963 59.0518 208.262 58.668ZM248.691 60.1445C251.129 60.0699 252.268 61.3355 252.109 63.9414C251.9 64.5198 251.607 65.0471 251.23 65.5234C246.498 67.7448 241.713 69.8192 236.875 71.7461C234.382 71.0726 233.601 69.4555 234.531 66.8945C234.824 66.5781 235.117 66.2617 235.41 65.9453C239.877 64.0587 244.304 62.1252 248.691 60.1445ZM192.051 72.168C195.12 72.1393 196.194 73.6861 195.273 76.8086C194.98 77.125 194.688 77.4414 194.395 77.7578C190.033 79.6562 185.671 81.5547 181.309 83.4531C178.409 83.6267 177.27 82.1852 177.891 79.1289C178.077 78.9013 178.24 78.6553 178.379 78.3906C182.925 76.2509 187.482 74.1767 192.051 72.168ZM249.277 74.6992C251.375 75.0998 252.319 76.4357 252.109 78.707C251.836 79.4246 251.413 80.0224 250.84 80.5C246.428 82.4398 242.001 84.3382 237.559 86.1953C235.121 86.375 233.982 85.1446 234.141 82.5039C234.42 81.781 234.843 81.1834 235.41 80.7109C240.031 78.6389 244.653 76.635 249.277 74.6992ZM192.441 86.7227C194.998 86.9859 196.007 88.4625 195.469 91.1523C195.25 91.6004 194.957 91.987 194.59 92.3125C190.113 94.3225 185.621 96.2912 181.113 98.2188C178.572 98.3573 177.433 97.0565 177.695 94.3164C177.903 93.6705 178.261 93.1432 178.77 92.7344C183.339 90.7043 187.896 88.7004 192.441 86.7227ZM248.887 89.4648C251.323 89.5296 252.397 90.8655 252.109 93.4727C251.902 94.1185 251.544 94.6459 251.035 95.0547C246.509 97.1061 241.952 99.0747 237.363 100.961C235.792 101.096 234.718 100.358 234.141 98.7461C233.917 97.4315 234.275 96.3416 235.215 95.4766C239.784 93.4465 244.341 91.4426 248.887 89.4648ZM192.246 101.488C193.978 101.279 195.117 102.053 195.664 103.809C195.794 109.152 195.794 114.496 195.664 119.84C195.476 120.677 195.053 121.345 194.395 121.844C189.752 123.925 185.064 125.859 180.332 127.645C179.04 127.551 178.161 126.848 177.695 125.535C177.565 120.051 177.565 114.566 177.695 109.082C178.043 108.215 178.596 107.547 179.355 107.078C183.692 105.262 187.989 103.399 192.246 101.488ZM208.262 102.754C213.169 104.486 217.986 106.49 222.715 108.766C224.011 109.901 224.304 111.272 223.594 112.879C222.836 114.01 221.826 114.467 220.566 114.25C216.124 112.393 211.697 110.494 207.285 108.555C205.306 106.88 205.241 105.123 207.09 103.281C207.502 103.103 207.893 102.927 208.262 102.754ZM248.496 104.23C251.392 104.157 252.532 105.634 251.914 108.66C251.435 109.361 250.817 109.888 250.059 110.242C245.957 112 241.855 113.758 237.754 115.516C235.217 115.799 234.012 114.568 234.141 111.824C234.414 111.107 234.837 110.509 235.41 110.031C239.815 108.154 244.177 106.22 248.496 104.23ZM207.871 117.52C208.396 117.485 208.917 117.52 209.434 117.625C213.796 119.523 218.158 121.422 222.52 123.32C224.067 124.556 224.36 126.067 223.398 127.855C222.677 128.686 221.798 129.072 220.762 129.016C216.173 127.129 211.616 125.161 207.09 123.109C205.196 120.917 205.456 119.053 207.871 117.52ZM249.082 118.785C251.388 118.987 252.397 120.323 252.109 122.793C251.902 123.439 251.544 123.966 251.035 124.375C246.565 126.402 242.073 128.371 237.559 130.281C234.939 130.406 233.833 129.07 234.238 126.273C234.484 125.515 234.94 124.953 235.605 124.586C240.117 122.64 244.609 120.706 249.082 118.785Z" fill="#DBDBDB"/>
<path opacity="0.941" fill-rule="evenodd" clip-rule="evenodd" d="M211.387 66.4727C213.7 67.259 215.979 68.173 218.223 69.2148C218.418 76.8073 218.483 84.4011 218.418 91.9961C216.056 91.1574 213.745 90.1732 211.484 89.043C211.387 81.5199 211.354 73.9964 211.387 66.4727Z" fill="#DBDBDB"/>
<path opacity="0.947" fill-rule="evenodd" clip-rule="evenodd" d="M189.707 109.082C189.967 110.34 190.097 111.676 190.098 113.09C190.065 114.426 190.033 115.762 190 117.098C187.833 118.109 185.652 119.094 183.457 120.051C183.262 117.312 183.197 114.57 183.262 111.824C185.469 111.03 187.617 110.116 189.707 109.082Z" fill="#DBDBDB"/>
</g>
<defs>
<clipPath id="clip0_125_2018">
<rect width="100" height="108" fill="white" transform="translate(165 40)"/>
</clipPath>
</defs>
</svg>
