<svg width="27" height="27" viewBox="0 0 27 27" fill="none" xmlns="http://www.w3.org/2000/svg">
<g clip-path="url(#clip0_25_196)">
<path opacity="0.993" fill-rule="evenodd" clip-rule="evenodd" d="M6.5127 -0.0263672C11.1533 -0.0263672 15.7939 -0.0263672 20.4346 -0.0263672C23.47 0.468555 25.5354 2.15606 26.6309 5.03613C26.7802 5.52756 26.8945 6.01979 26.9736 6.5127C26.9736 11.1533 26.9736 15.7939 26.9736 20.4346C26.4787 23.47 24.7912 25.5354 21.9111 26.6309C21.4197 26.7802 20.9275 26.8945 20.4346 26.9736C15.7939 26.9736 11.1533 26.9736 6.5127 26.9736C3.47732 26.4787 1.41189 24.7912 0.316406 21.9111C0.167051 21.4197 0.0527929 20.9275 -0.0263672 20.4346C-0.0263672 15.7939 -0.0263672 11.1533 -0.0263672 6.5127C0.468555 3.47732 2.15606 1.41189 5.03613 0.316406C5.52756 0.167051 6.01979 0.0527929 6.5127 -0.0263672ZM21.0674 3.40137C22.4094 3.39914 23.2267 4.04953 23.5195 5.35254C23.5636 6.62676 22.9747 7.44414 21.7529 7.80469C20.3985 7.92624 19.5284 7.33741 19.1426 6.03809C19.0499 4.61172 19.6915 3.73281 21.0674 3.40137ZM12.999 6.09082C16.4106 6.08655 18.8452 7.61585 20.3027 10.6787C21.4083 13.8588 20.7667 16.6273 18.3779 18.9844C16.0673 20.8812 13.5009 21.3207 10.6787 20.3027C7.77748 18.9584 6.24818 16.682 6.09082 13.4736C6.24818 10.2652 7.77748 7.98884 10.6787 6.64453C11.4352 6.35866 12.2086 6.17409 12.999 6.09082Z" fill="white"/>
<path opacity="0.908" fill-rule="evenodd" clip-rule="evenodd" d="M21.1728 4.93066C21.8214 4.97214 22.0763 5.30613 21.9374 5.93262C21.6702 6.32116 21.3274 6.40027 20.9091 6.16992C20.4946 5.64284 20.5824 5.22976 21.1728 4.93066Z" fill="white"/>
<path opacity="0.99" fill-rule="evenodd" clip-rule="evenodd" d="M13.2627 7.62012C16.0956 7.69521 18.0204 9.04874 19.0372 11.6807C19.6905 14.1216 19.1017 16.2046 17.2706 17.9297C14.7393 19.793 12.2081 19.793 9.67681 17.9297C7.84571 16.2046 7.25683 14.1216 7.9102 11.6807C8.56938 9.82615 9.8262 8.56934 11.6807 7.91016C12.2064 7.76113 12.7337 7.66447 13.2627 7.62012Z" fill="white"/>
</g>
<defs>
<clipPath id="clip0_25_196">
<rect width="27" height="27" fill="white"/>
</clipPath>
</defs>
</svg>
