<svg width="27" height="27" viewBox="0 0 27 27" fill="none" xmlns="http://www.w3.org/2000/svg">
<g clip-path="url(#clip0_75_143)">
<path opacity="0.995" fill-rule="evenodd" clip-rule="evenodd" d="M3.03223 -0.0263672C9.99316 -0.0263672 16.9541 -0.0263672 23.915 -0.0263672C25.585 0.342773 26.6045 1.3623 26.9736 3.03223C26.9736 9.99316 26.9736 16.9541 26.9736 23.915C26.6045 25.585 25.585 26.6045 23.915 26.9736C16.9541 26.9736 9.99316 26.9736 3.03223 26.9736C1.3623 26.6045 0.342773 25.585 -0.0263672 23.915C-0.0263672 16.9541 -0.0263672 9.99316 -0.0263672 3.03223C0.342773 1.3623 1.3623 0.342773 3.03223 -0.0263672ZM13.4209 5.03613C15.2278 5.11728 16.5373 5.96104 17.3496 7.56738C18.068 9.47769 17.69 11.1388 16.2158 12.5508C14.7605 13.6496 13.1961 13.8254 11.5225 13.0781C9.67776 11.9583 8.96585 10.3322 9.38672 8.2002C10.0457 6.26643 11.3904 5.21174 13.4209 5.03613ZM9.14941 13.5791C9.4008 13.5628 9.64691 13.5892 9.8877 13.6582C11.7078 14.9294 13.659 15.1755 15.7412 14.3965C16.2477 14.1523 16.7399 13.8886 17.2178 13.6055C17.9805 13.5412 18.4199 13.8927 18.5361 14.6602C18.4134 15.0475 18.1849 15.3639 17.8506 15.6094C17.4263 15.927 16.9693 16.1907 16.4795 16.4004C15.7708 16.6422 15.0501 16.8267 14.3174 16.9541C15.3889 18.052 16.4699 19.1418 17.5605 20.2236C17.9054 20.9847 17.6857 21.5208 16.9014 21.832C16.6855 21.8725 16.4745 21.8549 16.2686 21.7793C15.3735 20.9371 14.4947 20.0758 13.6318 19.1953C13.5439 19.1601 13.4561 19.1601 13.3682 19.1953C12.542 20.0215 11.7158 20.8476 10.8896 21.6738C9.97835 22.0442 9.41583 21.7454 9.20215 20.7773C9.23738 20.6023 9.29892 20.4353 9.38672 20.2764C10.5044 19.1762 11.6031 18.06 12.6826 16.9277C11.3346 16.8126 10.1217 16.3556 9.04395 15.5566C8.89455 15.4072 8.7451 15.2578 8.5957 15.1084C8.33288 14.4384 8.51745 13.9287 9.14941 13.5791Z" fill="white"/>
<path opacity="0.97" fill-rule="evenodd" clip-rule="evenodd" d="M13.1045 7.19833C14.401 7.112 15.2183 7.69208 15.5566 8.93856C15.6655 10.2065 15.1118 11.0238 13.8955 11.3907C12.5553 11.543 11.7203 10.9717 11.3906 9.67684C11.2846 8.37583 11.8559 7.54964 13.1045 7.19833Z" fill="white"/>
</g>
<defs>
<clipPath id="clip0_75_143">
<rect width="27" height="27" fill="white"/>
</clipPath>
</defs>
</svg>
