<svg width="27" height="27" viewBox="0 0 27 27" fill="none" xmlns="http://www.w3.org/2000/svg">
<g clip-path="url(#clip0_75_151)">
<path opacity="0.996" fill-rule="evenodd" clip-rule="evenodd" d="M3.03223 -0.0263672C9.99316 -0.0263672 16.9541 -0.0263672 23.915 -0.0263672C25.585 0.342773 26.6045 1.3623 26.9736 3.03223C26.9736 9.99316 26.9736 16.9541 26.9736 23.915C26.6045 25.585 25.585 26.6045 23.915 26.9736C16.9541 26.9736 9.99316 26.9736 3.03223 26.9736C1.3623 26.6045 0.342773 25.585 -0.0263672 23.915C-0.0263672 16.9541 -0.0263672 9.99316 -0.0263672 3.03223C0.342773 1.3623 1.3623 0.342773 3.03223 -0.0263672ZM20.9092 6.93457C21.6316 6.89222 21.9392 7.22624 21.832 7.93652C20.9555 11.8446 20.059 15.7469 19.1426 19.6436C18.7821 20.0523 18.369 20.1138 17.9033 19.8281C16.5953 18.9507 15.2946 18.0631 14.001 17.165C13.3075 17.797 12.6219 18.4386 11.9443 19.0898C11.3492 19.4184 10.9537 19.2514 10.7578 18.5889C10.3037 17.2354 9.85547 15.8819 9.41309 14.5283C8.07353 14.1847 6.73761 13.8243 5.40527 13.4473C5.11054 13.318 5.01386 13.0983 5.11523 12.7881C5.17676 12.6914 5.25586 12.6123 5.35254 12.5508C10.5533 10.7031 15.7389 8.831 20.9092 6.93457Z" fill="white"/>
<path opacity="0.94" fill-rule="evenodd" clip-rule="evenodd" d="M18.6943 9.20215C18.9305 9.22314 19.0008 9.34617 18.9052 9.57129C16.4806 11.5477 14.0636 13.534 11.6543 15.5303C11.5411 16.3376 11.4356 17.1463 11.3379 17.9561C11.2845 18.0002 11.223 18.0178 11.1533 18.0088C10.802 16.8583 10.4241 15.7158 10.0195 14.5811C9.97968 14.4332 9.99724 14.2926 10.0722 14.1592C12.9453 12.4987 15.8193 10.8464 18.6943 9.20215Z" fill="white"/>
</g>
<defs>
<clipPath id="clip0_75_151">
<rect width="27" height="27" fill="white"/>
</clipPath>
</defs>
</svg>
