<svg width="27" height="27" viewBox="0 0 27 27" fill="none" xmlns="http://www.w3.org/2000/svg">
<path opacity="0.995" fill-rule="evenodd" clip-rule="evenodd" d="M3.03223 -0.0263672C9.99316 -0.0263672 16.9541 -0.0263672 23.915 -0.0263672C25.585 0.342773 26.6045 1.3623 26.9736 3.03223C26.9736 9.99316 26.9736 16.9541 26.9736 23.915C26.6045 25.585 25.585 26.6045 23.915 26.9736C16.9541 26.9736 9.99316 26.9736 3.03223 26.9736C1.3623 26.6045 0.342773 25.585 -0.0263672 23.915C-0.0263672 16.9541 -0.0263672 9.99316 -0.0263672 3.03223C0.342773 1.3623 1.3623 0.342773 3.03223 -0.0263672ZM11.3643 8.6748C12.2609 8.666 13.1574 8.6748 14.0537 8.70117C14.4358 8.69774 14.7083 8.8647 14.8711 9.20215C14.9219 9.4809 14.9483 9.76219 14.9502 10.0459C14.8975 10.9244 14.8887 11.8033 14.9238 12.6826C15.0087 13.3234 15.2899 13.4289 15.7676 12.999C16.7032 11.9021 17.4239 10.6716 17.9297 9.30762C17.9912 9.24608 18.0527 9.18459 18.1143 9.12305C18.6914 9.06398 19.2715 9.03762 19.8545 9.04395C20.3643 9.05275 20.874 9.06151 21.3838 9.07031C21.7598 9.11166 21.9093 9.31384 21.832 9.67676C21.7577 9.95245 21.6522 10.2161 21.5156 10.4678C20.7978 11.5196 20.0595 12.5566 19.3008 13.5791C19.1077 13.8554 19.0902 14.1366 19.248 14.4229C20.2093 15.278 21.053 16.2272 21.7793 17.2705C22.0052 17.762 21.8558 18.0873 21.3311 18.2461C20.3994 18.2813 19.4678 18.2813 18.5361 18.2461C18.1485 18.183 17.8145 18.016 17.5342 17.7451C17.0675 17.2697 16.6105 16.7863 16.1631 16.2949C16.0051 16.15 15.8206 16.0533 15.6094 16.0049C15.4571 16.0261 15.334 16.0964 15.2402 16.2158C15.0609 16.7292 14.9378 17.2566 14.8711 17.7979C14.8041 18.023 14.6547 18.1549 14.4229 18.1934C12.4791 18.4184 10.7916 17.8735 9.36035 16.5586C8.3902 15.5233 7.55525 14.3895 6.85547 13.1572C6.23737 12.0616 5.67485 10.9366 5.16797 9.78223C5.03708 9.52019 5.06345 9.28288 5.24707 9.07031C6.17873 9.03514 7.11033 9.03514 8.04199 9.07031C8.26226 9.12347 8.44683 9.23774 8.5957 9.41309C9.13101 10.7748 9.86054 12.0141 10.7842 13.1309C10.8992 13.2279 11.031 13.2894 11.1797 13.3154C11.2931 13.3079 11.381 13.2552 11.4434 13.1572C11.521 12.9345 11.5737 12.706 11.6016 12.4717C11.6367 11.751 11.6367 11.0303 11.6016 10.3096C11.5669 9.72991 11.2593 9.40475 10.6787 9.33398C10.6512 9.3044 10.6336 9.26923 10.626 9.22852C10.7907 8.93157 11.0368 8.747 11.3643 8.6748Z" fill="white"/>
</svg>
