<svg width="39" height="29" viewBox="0 0 39 29" fill="none" xmlns="http://www.w3.org/2000/svg">
<path opacity="0.993" fill-rule="evenodd" clip-rule="evenodd" d="M38.9619 7.66016C38.9619 11.7226 38.9619 15.7852 38.9619 19.8477C38.8675 21.1919 38.6009 22.5122 38.1621 23.8086C37.1269 26.1249 35.3369 27.4325 32.792 27.7314C32.1858 27.8326 31.5764 27.9088 30.9639 27.96C27.156 28.0438 23.3474 28.0818 19.5381 28.0742C15.7795 28.0822 12.0217 28.0441 8.26465 27.96C6.81899 27.8756 5.42251 27.571 4.0752 27.0459C2.17893 26.1907 0.972882 24.7562 0.457031 22.7422C0.216535 21.7791 0.0514957 20.8143 -0.0380859 19.8477C-0.0380859 15.6582 -0.0380859 11.4688 -0.0380859 7.2793C0.0285203 5.74444 0.472856 4.32261 1.29492 3.01367C2.29706 1.93471 3.52851 1.26187 4.98926 0.995119C6.57348 0.687476 8.17309 0.535132 9.78809 0.538088C16.2373 0.487304 22.6865 0.487304 29.1357 0.538088C31.2973 0.48767 33.4047 0.792357 35.458 1.45215C36.8164 1.99805 37.7685 2.95022 38.3145 4.3086C38.6645 5.41095 38.8803 6.52809 38.9619 7.66016ZM15.8818 8.65039C16.1117 8.63782 16.3402 8.65055 16.5674 8.68848C19.4111 10.1611 22.2549 11.6338 25.0986 13.1064C25.8319 13.8179 25.8064 14.5034 25.0225 15.1631C22.2937 16.5656 19.5769 17.9874 16.8721 19.4287C16.0377 19.7667 15.441 19.5255 15.082 18.7051C15.0312 15.6328 15.0312 12.5605 15.082 9.48828C15.2616 9.11847 15.5282 8.83922 15.8818 8.65039Z" fill="white"/>
</svg>
