<svg width="20" height="20" viewBox="0 0 20 20" fill="none" xmlns="http://www.w3.org/2000/svg">
<path opacity="0.991" fill-rule="evenodd" clip-rule="evenodd" d="M9.08203 -0.0195312C9.68098 -0.0195312 10.28 -0.0195312 10.8789 -0.0195312C14.3806 0.405777 17.0173 2.13755 18.7891 5.17578C19.4412 6.40512 19.8383 7.70719 19.9805 9.08203C19.9805 9.68098 19.9805 10.28 19.9805 10.8789C19.5552 14.3806 17.8234 17.0173 14.7852 18.7891C13.5558 19.4412 12.2537 19.8383 10.8789 19.9805C10.28 19.9805 9.68098 19.9805 9.08203 19.9805C5.58031 19.5552 2.9436 17.8234 1.17188 14.7852C0.519738 13.5558 0.122602 12.2537 -0.0195312 10.8789C-0.0195312 10.28 -0.0195312 9.68098 -0.0195312 9.08203C0.405762 5.58035 2.13753 2.94364 5.17578 1.17188C6.40512 0.519738 7.70719 0.122602 9.08203 -0.0195312ZM6.54297 3.76953C7.04516 3.67879 7.40324 3.86108 7.61719 4.31641C7.82832 5.135 8.07574 5.9423 8.35938 6.73828C8.41367 7.01816 8.32902 7.24605 8.10547 7.42188C7.77012 7.57273 7.43156 7.71594 7.08984 7.85156C6.75848 8.14148 6.66082 8.49957 6.79688 8.92578C7.71582 10.8343 9.12859 12.2471 11.0352 13.1641C11.5913 13.3317 11.9884 13.1559 12.2266 12.6367C12.3154 12.3701 12.4196 12.1096 12.5391 11.8555C12.7718 11.6 13.0517 11.5283 13.3789 11.6406C14.2089 11.9262 15.0423 12.1996 15.8789 12.4609C16.1005 12.6436 16.2046 12.878 16.1914 13.1641C16.0711 14.5989 15.342 15.5755 14.0039 16.0938C13.27 16.2363 12.5408 16.2102 11.8164 16.0156C8.14789 14.9123 5.61531 12.5751 4.21875 9.00391C3.86336 8.13855 3.72013 7.24012 3.78906 6.30859C4.16449 4.87191 5.08246 4.02559 6.54297 3.76953Z" fill="white"/>
</svg>
