<svg width="24" height="24" viewBox="0 0 24 24" fill="none" xmlns="http://www.w3.org/2000/svg">
<path opacity="0.993" fill-rule="evenodd" clip-rule="evenodd" d="M10.9453 -0.0234375C11.6328 -0.0234375 12.3203 -0.0234375 13.0078 -0.0234375C17.7078 0.564412 21.0593 3.00191 23.0625 7.28906C23.5451 8.46956 23.8498 9.68831 23.9766 10.9453C23.9766 11.6328 23.9766 12.3203 23.9766 13.0078C23.3887 17.7078 20.9512 21.0593 16.6641 23.0625C15.4836 23.5451 14.2648 23.8498 13.0078 23.9766C12.3203 23.9766 11.6328 23.9766 10.9453 23.9766C6.24534 23.3887 2.89378 20.9512 0.890625 16.6641C0.407997 15.4836 0.103309 14.2648 -0.0234375 13.0078C-0.0234375 12.3203 -0.0234375 11.6328 -0.0234375 10.9453C0.564412 6.24534 3.00191 2.89378 7.28906 0.890625C8.46956 0.407997 9.68831 0.103309 10.9453 -0.0234375ZM9.72656 6.02344C10.0815 5.96644 10.394 6.05236 10.6641 6.28125C12.3437 7.96092 14.0235 9.64064 15.7031 11.3203C16.0469 11.7578 16.0469 12.1953 15.7031 12.6328C14.0235 14.3125 12.3437 15.9922 10.6641 17.6719C10.1396 18.0447 9.64744 18.0056 9.1875 17.5547C8.99072 17.2027 8.97511 16.8434 9.14062 16.4766C10.6087 14.9694 12.0853 13.4694 13.5703 11.9766C12.0853 10.4837 10.6087 8.98373 9.14062 7.47656C8.87447 6.79739 9.06975 6.31303 9.72656 6.02344Z" fill="#EEAC49"/>
</svg>
