<svg width="19" height="16" viewBox="0 0 19 16" fill="none" xmlns="http://www.w3.org/2000/svg">
<path d="M9.85669 0.688865C9.69653 0.876365 9.52466 1.07558 9.47778 1.13418L9.38794 1.24355L12.7864 4.24355L16.1848 7.24746L7.25903 7.25918L-1.66675 7.26699V7.85293V8.43887L7.25903 8.44668L16.1848 8.4584L12.7864 11.4623C9.79419 14.1068 9.39184 14.474 9.43872 14.5287C9.75903 14.9076 10.1575 15.3334 10.2004 15.3334C10.2278 15.3334 12.0715 13.7279 14.2942 11.7631L18.3333 8.18887V7.85293V7.51699L14.2942 3.94277C12.0715 1.97793 10.2278 0.368552 10.2004 0.364646C10.1731 0.356833 10.0168 0.505271 9.85669 0.688865Z" fill="#09283A"/>
</svg>
