<svg width="19" height="16" viewBox="0 0 19 16" fill="none" xmlns="http://www.w3.org/2000/svg">
<path d="M9.85681 0.688956C9.69665 0.876456 9.52478 1.07568 9.4779 1.13427L9.38806 1.24364L12.7865 4.24365L16.1849 7.24755L7.25915 7.25927L-1.66663 7.26709V7.85302V8.43896L7.25915 8.44677L16.1849 8.45849L12.7865 11.4624C9.79431 14.1069 9.39197 14.4741 9.43884 14.5288C9.75915 14.9077 10.1576 15.3335 10.2006 15.3335C10.2279 15.3335 12.0717 13.728 14.2943 11.7632L18.3334 8.18896V7.85302V7.51709L14.2943 3.94286C12.0717 1.97802 10.2279 0.368644 10.2006 0.364738C10.1732 0.356925 10.017 0.505363 9.85681 0.688956Z" fill="#EEAC49"/>
</svg>
