<svg width="25" height="18" viewBox="0 0 25 18" fill="none" xmlns="http://www.w3.org/2000/svg">
<path opacity="0.978" fill-rule="evenodd" clip-rule="evenodd" d="M15.5523 0.00598273C16.0065 -0.0269508 16.4264 0.076088 16.812 0.315011C19.4663 2.91968 22.1207 5.52434 24.7751 8.12901C25.075 8.71766 25.075 9.30623 24.7751 9.89488C22.1207 12.4995 19.4663 15.1042 16.812 17.7089C15.8503 18.2375 15.0855 18.0462 14.5175 17.135C14.3158 16.6071 14.3758 16.1068 14.6975 15.634C16.4521 13.9122 18.2066 12.1905 19.9612 10.4688C13.6328 10.4394 7.3042 10.4099 0.975729 10.3805C0.0228554 9.90053 -0.232144 9.17944 0.210911 8.2173C0.416692 7.95577 0.671601 7.76444 0.975729 7.64339C7.3042 7.61399 13.6328 7.5845 19.9612 7.5551C18.2066 5.83337 16.4521 4.11164 14.6975 2.38991C14.1367 1.28818 14.4217 0.493541 15.5523 0.00598273Z" fill="#EEAC49"/>
</svg>
