<svg width="1275" height="662" viewBox="0 0 1275 662" fill="none" xmlns="http://www.w3.org/2000/svg">
<rect width="800" height="286" fill="#09283A"/>
<line x1="830" y1="196.5" x2="1275" y2="196.5" stroke="#797979"/>
<line x1="341.5" y1="484" x2="341.5" y2="537" stroke="#EEAC49"/>
<line x1="324" y1="536.5" x2="341" y2="536.5" stroke="#EEAC49"/>
<circle r="4" transform="matrix(-1 0 0 1 320 537)" fill="#EEAC49"/>
<line x1="383.5" y1="508" x2="383.5" y2="658" stroke="#EEAC49"/>
<line x1="384" y1="658.5" x2="369" y2="658.5" stroke="#EEAC49"/>
<circle r="4" transform="matrix(-1 0 0 1 365 658)" fill="#EEAC49"/>
<circle r="4" transform="matrix(-1 0 0 1 666 521)" fill="#EEAC49"/>
<line x1="506" y1="441.5" x2="666" y2="441.5" stroke="#EEAC49"/>
<line x1="665.5" y1="518" x2="665.5" y2="442" stroke="#EEAC49"/>
<line x1="506" y1="420.5" x2="800" y2="420.5" stroke="#EEAC49"/>
<circle r="4" transform="matrix(-1 0 0 1 945 611)" fill="#EEAC49"/>
<line x1="800" y1="610.5" x2="941" y2="610.5" stroke="#EEAC49"/>
<line x1="799.5" y1="611" x2="799.5" y2="420" stroke="#EEAC49"/>
<line x1="612" y1="372.5" x2="1147" y2="372.5" stroke="#EEAC49"/>
<circle r="4" transform="matrix(-1 0 0 1 1146 499)" fill="#EEAC49"/>
<line x1="1146.5" y1="499" x2="1146.5" y2="373" stroke="#EEAC49"/>
<line y1="-0.5" x2="150" y2="-0.5" transform="matrix(-4.37114e-08 1 1 4.37114e-08 445 508)" stroke="#EEAC49"/>
<line y1="-0.5" x2="15" y2="-0.5" transform="matrix(1 -8.74228e-08 -8.74228e-08 -1 444 658)" stroke="#EEAC49"/>
<circle cx="463" cy="658" r="4" fill="#EEAC49"/>
<line x1="574" y1="397.5" x2="973" y2="397.5" stroke="#EEAC49"/>
<circle r="4" transform="matrix(-1 0 0 1 972 449)" fill="#EEAC49"/>
<line x1="972.5" y1="450" x2="972.5" y2="398" stroke="#EEAC49"/>
</svg>
